<svg width="254" height="295" viewBox="0 0 254 295" fill="none" xmlns="http://www.w3.org/2000/svg">
<path fill-rule="evenodd" clip-rule="evenodd" d="M0 127.773V125.672C0 56.5418 56.3866 0.5 125.943 0.5H128.057C197.613 0.5 254 56.5418 254 125.672V127.774C254 196.905 197.613 252.947 128.057 252.947H125.943C56.3866 252.948 0 196.905 0 127.774" fill="#E4EBF7"/>
<path fill-rule="evenodd" clip-rule="evenodd" d="M40.1068 131.291C40.0051 132.381 39.6872 133.441 39.1714 134.409C38.6555 135.377 37.952 136.234 37.1012 136.931C36.2505 137.627 35.2695 138.149 34.2147 138.467C33.1599 138.785 32.0523 138.892 30.9557 138.782C29.8591 138.672 28.7953 138.347 27.8255 137.827C26.8558 137.306 25.9993 136.6 25.3055 135.749C24.6118 134.898 24.0944 133.918 23.7833 132.868C23.4722 131.817 23.3736 130.715 23.493 129.626C23.7317 127.45 24.826 125.456 26.5375 124.077C28.2489 122.699 30.439 122.049 32.6305 122.269C34.822 122.489 36.8374 123.56 38.2377 125.25C39.6381 126.939 40.3098 129.111 40.1068 131.291Z" fill="white"/>
<path d="M48.8012 147L36.0413 157.817M37.3023 134.757L47.8771 140.716L37.3023 134.757Z" stroke="white" stroke-width="2"/>
<path fill-rule="evenodd" clip-rule="evenodd" d="M40.2279 159.879C40.0759 161.378 39.3308 162.756 38.1566 163.71C36.9823 164.663 35.4751 165.114 33.9664 164.963C32.4578 164.812 31.0713 164.071 30.112 162.904C29.1527 161.737 28.6991 160.239 28.8511 158.74C28.9263 157.997 29.148 157.277 29.5034 156.62C29.8588 155.962 30.3409 155.381 30.9224 154.909C31.5038 154.437 32.1731 154.083 32.892 153.868C33.611 153.653 34.3655 153.581 35.1125 153.656C35.8595 153.731 36.5844 153.951 37.2457 154.304C37.9071 154.657 38.492 155.137 38.967 155.714C39.442 156.292 39.7978 156.958 40.0141 157.672C40.2305 158.387 40.3031 159.137 40.2279 159.879ZM58.0976 143.731C58.0279 144.483 57.8089 145.215 57.4533 145.883C57.0977 146.551 56.6125 147.142 56.0256 147.623C55.4388 148.104 54.762 148.464 54.0343 148.683C53.3066 148.903 52.5423 148.977 51.7857 148.901C51.0291 148.825 50.2951 148.601 49.6261 148.242C48.9571 147.882 48.3663 147.395 47.8878 146.808C47.4093 146.22 47.0526 145.544 46.8382 144.819C46.6239 144.094 46.5562 143.334 46.6391 142.583C46.8046 141.082 47.5596 139.708 48.7398 138.758C49.9201 137.808 51.43 137.361 52.9409 137.512C54.4518 137.663 55.8414 138.402 56.8072 139.566C57.773 140.731 58.2368 142.228 58.0976 143.731ZM99.8942 27.047L129.978 27.033C130.586 27.0328 131.188 26.9136 131.749 26.6822C132.311 26.4509 132.821 26.1119 133.25 25.6846C133.68 25.2574 134.021 24.7502 134.253 24.192C134.485 23.6339 134.605 23.0357 134.605 22.4317C134.604 21.8276 134.485 21.2295 134.252 20.6715C134.019 20.1135 133.678 19.6065 133.248 19.1796C132.818 18.7526 132.308 18.4139 131.746 18.1829C131.185 17.952 130.583 17.8332 129.975 17.8334L99.8912 17.8464C99.2834 17.8466 98.6815 17.9658 98.12 18.1972C97.5585 18.4285 97.0484 18.7676 96.6187 19.1949C96.1891 19.6222 95.8483 20.1294 95.6159 20.6876C95.3834 21.2458 95.2639 21.8441 95.2641 22.4482C95.2643 23.0523 95.3842 23.6505 95.617 24.2085C95.8498 24.7666 96.1909 25.2736 96.6209 25.7007C97.0508 26.1277 97.5612 26.4664 98.1228 26.6974C98.6845 26.9284 99.2864 27.0472 99.8942 27.047ZM111.401 45.4321L141.485 45.4191C142.701 45.4007 143.86 44.9078 144.713 44.0467C145.566 43.1856 146.044 42.0256 146.043 40.8173C146.043 39.609 145.564 38.4494 144.71 37.5891C143.857 36.7288 142.697 36.2368 141.481 36.2195L111.397 36.2325C110.789 36.2328 110.188 36.352 109.626 36.5834C109.065 36.8148 108.555 37.1539 108.125 37.5812C107.696 38.0085 107.355 38.5157 107.123 39.0739C106.89 39.6321 106.771 40.2303 106.771 40.8343C106.771 41.4384 106.891 42.0365 107.124 42.5944C107.357 43.1524 107.698 43.6593 108.128 44.0863C108.558 44.5132 109.068 44.8518 109.63 45.0828C110.192 45.3137 110.793 45.4324 111.401 45.4321Z" fill="white"/>
<path fill-rule="evenodd" clip-rule="evenodd" d="M113.796 27.0329V27.0309L129.72 27.0249C129.106 27.0161 128.497 27.1286 127.928 27.3559C127.358 27.5832 126.84 27.9208 126.403 28.3489C125.966 28.7771 125.619 29.2873 125.383 29.85C125.146 30.4126 125.024 31.0164 125.024 31.6262C125.025 32.236 125.147 32.8398 125.384 33.4022C125.621 33.9647 125.968 34.4747 126.405 34.9026C126.843 35.3305 127.361 35.6677 127.931 35.8946C128.5 36.1215 129.109 36.2337 129.723 36.2245L113.8 36.2315V36.2295C115.027 36.229 116.204 35.744 117.071 34.8813C117.938 34.0185 118.425 32.8487 118.425 31.6292C118.424 30.4097 117.936 29.2403 117.068 28.3783C116.2 27.5163 115.023 27.0324 113.796 27.0329ZM186.156 136.131C185.598 141.631 180.661 145.64 175.128 145.085C169.595 144.531 165.561 139.623 166.119 134.124C166.676 128.624 171.614 124.616 177.148 125.17C182.681 125.725 186.715 130.632 186.157 136.131" fill="white"/>
<path d="M194.714 156.996L179.324 170.042M180.846 142.23L193.598 149.416L180.846 142.23Z" stroke="white" stroke-width="2"/>
<path fill-rule="evenodd" clip-rule="evenodd" d="M186.302 170.613C186.221 171.516 185.961 172.394 185.536 173.197C185.111 173.999 184.531 174.71 183.827 175.288C183.124 175.866 182.312 176.299 181.44 176.563C180.567 176.827 179.65 176.916 178.742 176.825C177.834 176.734 176.953 176.464 176.151 176.033C175.348 175.601 174.64 175.015 174.067 174.309C173.494 173.604 173.068 172.792 172.813 171.921C172.558 171.05 172.479 170.138 172.582 169.237C172.786 167.445 173.692 165.805 175.104 164.672C176.516 163.54 178.321 163.006 180.126 163.187C181.931 163.368 183.592 164.249 184.748 165.639C185.905 167.029 186.463 168.816 186.302 170.613ZM205.139 153.836C205.055 154.743 204.791 155.625 204.361 156.431C203.932 157.236 203.347 157.949 202.639 158.528C201.931 159.108 201.115 159.542 200.237 159.806C199.36 160.071 198.438 160.16 197.526 160.068C196.614 159.977 195.728 159.707 194.922 159.274C194.115 158.84 193.402 158.253 192.825 157.544C192.248 156.836 191.818 156.021 191.559 155.147C191.301 154.273 191.219 153.356 191.318 152.45C191.517 150.64 192.428 148.981 193.852 147.835C195.275 146.689 197.097 146.148 198.92 146.331C200.743 146.514 202.42 147.405 203.585 148.811C204.749 150.216 205.308 152.022 205.139 153.836Z" fill="white"/>
<path fill-rule="evenodd" clip-rule="evenodd" d="M153.276 192.939C153.276 193.53 153.039 194.097 152.619 194.515C152.199 194.932 151.628 195.167 151.034 195.167C150.439 195.167 149.869 194.932 149.449 194.515C149.028 194.097 148.792 193.53 148.792 192.939C148.792 192.348 149.028 191.782 149.449 191.364C149.869 190.946 150.439 190.711 151.034 190.711C151.628 190.711 152.199 190.946 152.619 191.364C153.039 191.782 153.276 192.348 153.276 192.939V192.939ZM227.264 116.467C227.264 117.058 227.027 117.625 226.607 118.043C226.186 118.461 225.616 118.695 225.021 118.695C224.427 118.695 223.856 118.461 223.436 118.043C223.015 117.625 222.779 117.058 222.779 116.467C222.779 115.876 223.015 115.309 223.436 114.892C223.856 114.474 224.426 114.239 225.021 114.239C225.615 114.239 226.186 114.474 226.606 114.892C227.026 115.309 227.263 115.876 227.263 116.467H227.264ZM218.295 151.585C218.295 151.877 218.237 152.167 218.124 152.438C218.011 152.708 217.846 152.954 217.638 153.161C217.429 153.368 217.182 153.532 216.91 153.644C216.638 153.756 216.346 153.813 216.052 153.813C215.757 153.813 215.466 153.755 215.194 153.643C214.921 153.531 214.674 153.367 214.466 153.16C214.258 152.953 214.093 152.707 213.98 152.437C213.867 152.166 213.809 151.876 213.81 151.584C213.81 150.993 214.046 150.426 214.466 150.008C214.887 149.59 215.457 149.355 216.052 149.355C216.647 149.355 217.217 149.59 217.638 150.008C218.059 150.426 218.295 150.993 218.295 151.584V151.585ZM178.483 108.024C178.489 108.321 178.436 108.616 178.326 108.892C178.216 109.168 178.052 109.419 177.843 109.631C177.634 109.843 177.385 110.011 177.11 110.126C176.835 110.241 176.539 110.301 176.241 110.301C175.942 110.301 175.646 110.241 175.371 110.126C175.096 110.011 174.847 109.843 174.638 109.631C174.429 109.419 174.265 109.168 174.155 108.892C174.045 108.616 173.992 108.321 173.998 108.024C174.011 107.442 174.252 106.887 174.672 106.479C175.091 106.071 175.654 105.843 176.241 105.843C176.827 105.843 177.39 106.071 177.809 106.479C178.229 106.887 178.47 107.442 178.483 108.024ZM197.019 92.5119C197.026 92.8085 196.972 93.1034 196.862 93.3793C196.753 93.6552 196.588 93.9065 196.38 94.1185C196.171 94.3305 195.921 94.4989 195.646 94.6139C195.371 94.7289 195.076 94.7881 194.777 94.7881C194.479 94.7881 194.183 94.7289 193.908 94.6139C193.633 94.4989 193.383 94.3305 193.175 94.1185C192.966 93.9065 192.802 93.6552 192.692 93.3793C192.582 93.1034 192.529 92.8085 192.535 92.5119C192.547 91.929 192.789 91.3742 193.208 90.9664C193.627 90.5586 194.191 90.3302 194.777 90.3302C195.364 90.3302 195.927 90.5586 196.346 90.9664C196.765 91.3742 197.007 91.929 197.019 92.5119V92.5119ZM203.846 181.295C203.846 181.886 203.61 182.453 203.189 182.871C202.769 183.289 202.198 183.524 201.603 183.524C201.009 183.524 200.438 183.289 200.018 182.871C199.597 182.453 199.361 181.886 199.361 181.295C199.361 180.704 199.597 180.137 200.018 179.719C200.438 179.301 201.009 179.066 201.603 179.066C202.198 179.066 202.769 179.301 203.189 179.719C203.61 180.137 203.846 180.704 203.846 181.295V181.295Z" stroke="white" stroke-width="2"/>
<path d="M222.778 117.664L209.824 125.586L194.379 117.663V94.7428M216.301 153.813L214.372 174.051L203.348 180.057L216.301 153.813ZM175.198 175.36L168.786 185.201H157.325L152.777 191.702L175.198 175.36ZM176.489 125.603V109.757V125.603Z" stroke="white" stroke-width="2"/>
<path fill-rule="evenodd" clip-rule="evenodd" d="M168.062 66.2126H164.076C162.808 66.2091 161.594 65.7071 160.697 64.8162C159.8 63.9253 159.295 62.7179 159.291 61.4579C159.295 60.1976 159.8 58.99 160.697 58.0989C161.593 57.2077 162.808 56.7056 164.076 56.7021H168.062C169.33 56.7056 170.545 57.2077 171.442 58.0989C172.338 58.99 172.844 60.1976 172.847 61.4579C172.843 62.7179 172.338 63.9253 171.441 64.8162C170.545 65.7071 169.33 66.2091 168.062 66.2126Z" fill="white"/>
<path fill-rule="evenodd" clip-rule="evenodd" d="M176.37 30.21C176.37 13.8854 189.685 0.651001 206.111 0.651001C222.535 0.651001 235.852 13.8854 235.852 30.21C235.852 46.5336 222.535 59.769 206.111 59.769C189.685 59.769 176.37 46.5336 176.37 30.21Z" fill="#1890FF"/>
<path fill-rule="evenodd" clip-rule="evenodd" d="M207.775 38.5898C208.279 39.0911 208.567 39.7348 208.567 40.5229C208.567 41.311 208.278 41.9918 207.775 42.4922C207.198 42.9935 206.55 43.2442 205.757 43.2442C204.965 43.2442 204.315 42.9584 203.811 42.4571C203.234 41.9557 202.984 41.311 202.984 40.5229C202.984 39.7348 203.234 39.0911 203.811 38.5898C204.315 38.0884 204.965 37.8377 205.758 37.8377C206.55 37.8377 207.233 38.0884 207.775 38.5898ZM212.098 19.0746C213.538 20.327 214.26 22.0455 214.26 24.2304C214.26 25.947 213.829 27.3688 213.03 28.4918C212.962 28.588 212.892 28.6723 212.81 28.7575C212.39 29.1876 211.387 30.1071 209.828 31.4637C209.221 31.9335 208.728 32.5333 208.387 33.2184C208.023 33.9531 207.837 34.7627 207.846 35.5817V36.0831H203.703V35.5817C203.703 34.2211 203.92 33.0389 204.423 32.0723C204.891 31.1058 206.297 29.6017 208.638 27.5242L209.072 27.0228C209.721 26.2357 210.045 25.3754 210.045 24.4811C210.045 23.2979 209.683 22.3674 209.036 21.6886C208.352 21.0068 207.378 20.6849 206.152 20.6849C204.603 20.6849 203.487 21.1502 202.766 22.1187C202.392 22.6201 202.139 23.2568 201.999 24.0278C201.912 24.4883 201.665 24.9039 201.302 25.2025C200.939 25.501 200.482 25.6637 200.011 25.6622H200.007C198.718 25.6622 197.73 24.476 198.009 23.2257C198.349 21.7036 199.038 20.4383 200.1 19.4316C201.65 17.9275 203.739 17.1755 206.406 17.1755C208.746 17.1755 210.657 17.7842 212.098 19.0746Z" fill="white"/>
<path fill-rule="evenodd" clip-rule="evenodd" d="M52.5005 76.4349C52.5005 76.4349 74.5035 81.8093 80.0491 92.4227C85.6734 103.191 73.6409 101.707 64.1799 97.3709C53.2238 92.3495 39.2613 85.5172 52.5005 76.4349Z" fill="#FFB594"/>
<path fill-rule="evenodd" clip-rule="evenodd" d="M91.2837 67.7848L90.8307 70.6855C90.071 71.1769 86.0407 68.0154 86.0407 68.0154L84.3811 68.7654L83.0232 63.0662C83.0232 63.0662 89.8985 58.4649 92.0191 58.0347C94.4928 57.5324 101.991 58.9773 102.814 60.3188C102.814 60.3188 104.145 60.8061 100.567 61.0107C96.9877 61.2142 95.4795 61.4589 93.717 64.1511C91.9545 66.8443 91.2837 67.7848 91.2837 67.7848Z" fill="#FFC6A0"/>
<path fill-rule="evenodd" clip-rule="evenodd" d="M129.188 111.765C126.538 104.021 122.984 98.55 120.192 96.2458C116.661 93.332 110.77 94.0148 108.726 92.0476C107.445 90.8133 105.482 90.8474 105.482 90.8474C105.482 90.8474 90.3697 87.6809 88.5054 87.3591C86.1144 86.948 86.3626 86.6431 82.3978 85.9503C80.8139 84.0382 79.455 84.8253 79.455 84.8253L72.2821 83.4386C71.4215 81.9626 69.8376 82.4128 69.8376 82.4128L67.3478 81.5134C65.6882 91.5162 59.5393 95.3464 59.5393 95.3464C61.3502 96.4714 75.3813 103.669 75.3813 103.669L80.5335 140.878C80.5335 140.878 77.1831 146.587 81.8914 150.011C81.8914 150.011 101.95 146.258 117.121 149.682C117.121 149.682 120.195 147.129 118.102 140.852C118.63 137.834 119.508 132.567 119.853 129.199C120.242 129.973 121.89 131.122 123.021 132.685C123.021 132.685 132.511 125.3 134.171 118.636C133.332 117.911 132.559 117.046 131.884 116.176C131.312 115.438 131.523 114.115 131.112 113.452C130.437 112.365 129.292 112.07 129.188 111.765Z" fill="white"/>
<path fill-rule="evenodd" clip-rule="evenodd" d="M101.985 290.875C101.985 290.875 106.318 292.921 109.404 291.899C112.25 290.956 113.974 292.569 116.546 293.08C119.119 293.591 123.481 294.183 128.336 291.817C128.232 286.292 121.386 287.826 116.27 285.086C113.684 283.702 112.452 280.351 112.64 276.263H103.155C103.155 276.263 101.751 286.811 101.985 290.875Z" fill="#CBD1D1"/>
<path fill-rule="evenodd" clip-rule="evenodd" d="M101.961 290.702C101.961 290.702 104.411 291.977 108.78 291.357C111.865 290.919 112.525 291.839 116.269 292.391C120.014 292.942 127.088 292.322 128.197 291.495C128.613 292.597 127.851 293.563 127.851 293.563C127.851 293.563 126.325 294.168 122.996 294.389C120.948 294.526 117.145 294.681 115.322 293.885C113.519 292.506 110.028 291.977 109.543 293.643C105.59 294.596 102.123 293.357 102.123 293.357L101.961 290.702Z" fill="#2B0849"/>
<path fill-rule="evenodd" clip-rule="evenodd" d="M109.3 276.884H112.421C112.421 276.884 112.317 283.604 116.997 285.464C112.316 286.084 108.364 283.155 109.3 276.884Z" fill="#A4AABA"/>
<path fill-rule="evenodd" clip-rule="evenodd" d="M58.0512 273.231C58.0512 273.231 55.9256 280.667 53.5266 285.57C51.7126 289.275 49.2642 293.082 59.0399 293.082C65.7468 293.082 68.0722 292.601 66.5286 286.465C64.9851 280.329 66.797 273.231 66.797 273.231H58.0512Z" fill="#CBD1D1"/>
<path fill-rule="evenodd" clip-rule="evenodd" d="M51.9316 290.669C51.9316 290.669 54.0471 291.842 58.6232 291.842C64.7601 291.842 66.9452 290.187 66.9452 290.187C66.9452 290.187 67.5526 291.304 66.3208 292.358C65.319 293.215 62.6919 293.953 58.8654 293.908C54.6837 293.86 52.9818 293.341 52.0698 292.737C51.2375 292.185 51.3767 291.153 51.9316 290.669Z" fill="#2B0849"/>
<path fill-rule="evenodd" clip-rule="evenodd" d="M58.9358 275.139C58.9358 275.139 58.9691 276.662 58.6191 278.077C58.267 279.501 57.5315 281.189 57.4791 282.227C57.4206 283.381 62.0562 283.811 62.6797 282.261C63.3052 280.71 63.9851 275.817 64.6096 274.989C65.2341 274.162 59.6632 272.865 58.9358 275.14" fill="#A4AABA"/>
<path fill-rule="evenodd" clip-rule="evenodd" d="M100.542 279.36L114.038 279.452C114.038 279.452 115.348 224.786 115.908 214.877C116.467 204.968 119.717 171.397 116.919 151.58L104.26 150.934L81.2093 151.716C81.2093 151.716 80.7714 155.693 80.0037 161.719C79.9402 162.216 79.3157 162.564 79.2481 163.087C79.1724 163.674 79.6748 164.445 79.5709 165.059C77.186 179.176 73.1375 198.251 70.7495 211.861C70.6325 212.529 69.5046 212.872 69.2786 214.559C69.2383 214.862 69.4915 216.088 69.3916 216.359C62.4578 235.153 58.3457 264.329 54.9883 278.41L69.7245 278.396C69.7245 278.396 71.941 269.803 73.7902 261.38C76.6261 248.46 97.1057 176.142 97.1057 176.142L100.148 175.62L101.201 222.094C101.201 222.094 100.975 223.331 101.541 224.12C102.106 224.907 100.976 225.245 101.145 226.37L101.541 228.168C101.541 228.168 101.088 235.366 100.635 240.09C100.183 244.813 100.542 279.36 100.542 279.36Z" fill="#7BB2F9"/>
<path d="M107.301 225.845C107.301 225.845 110.1 224.732 113.458 221.952M76.7583 222.32C77.9215 222.414 80.832 220.295 83.7748 217.371L76.7583 222.32Z" stroke="#648BD8" stroke-width="1.051" stroke-linecap="round" stroke-linejoin="round"/>
<path d="M108.224 222.795C108.224 222.795 111.022 221.682 114.38 218.901" stroke="#648BD8" stroke-linecap="round" stroke-linejoin="round"/>
<path d="M56.6167 275.253H70.0445M75.4015 225.469C75.4015 225.469 78.0467 224.876 81.964 222.095L75.4015 225.469ZM86.7914 152.14C86.519 155.254 87.094 160.688 82.417 161.288L86.7914 152.14ZM104.542 150.381C104.542 150.381 104.653 164.431 103.238 165.487C100.999 167.155 100.221 167.436 100.221 167.436L104.542 150.381ZM100.673 150.941C100.673 150.941 100.708 163.855 99.4666 175.383L100.673 150.941ZM94.502 176.482C94.502 176.482 101.778 174.814 104.016 174.814L94.502 176.482ZM74.9677 206.512C74.6553 208.04 74.3261 209.564 73.98 211.085C73.98 211.085 72.5091 212.922 72.9621 214.871C73.415 216.82 72.0067 216.921 67.933 230.267C66.222 235.872 63.4032 248.908 61.5288 257.938L61.2957 259.061L74.9677 206.512ZM76.3589 198.437C76.0743 200.028 75.7777 201.617 75.4691 203.204L76.3589 198.437ZM83.322 152.741L82.1154 163.236C82.1154 163.236 81.0087 163.386 81.6109 165.486C81.7249 166.835 78.9133 181.303 76.3851 195.997L83.322 152.741Z" stroke="#648BD8" stroke-width="1.051" stroke-linecap="round" stroke-linejoin="round"/>
<path fill-rule="evenodd" clip-rule="evenodd" d="M117.27 148.717C117.27 148.717 100.072 145.605 81.0589 148.918C81.2183 151.438 81.0559 153.079 81.0559 153.079C81.0559 153.079 95.8729 150.253 117.042 152.766C117.296 150.405 117.27 148.717 117.27 148.717Z" fill="#192064"/>
<path fill-rule="evenodd" clip-rule="evenodd" d="M107.263 151.67L107.266 146.746C107.267 146.535 107.186 146.332 107.04 146.179C106.893 146.027 106.693 145.937 106.481 145.929C104.019 145.837 101.37 145.82 98.5756 145.915C98.3624 145.922 98.1604 146.011 98.012 146.164C97.8636 146.316 97.7803 146.52 97.7796 146.732L97.7766 151.651C97.7762 151.76 97.7977 151.867 97.8399 151.968C97.8821 152.068 97.9441 152.159 98.0223 152.235C98.1005 152.311 98.1932 152.37 98.295 152.41C98.3968 152.45 98.5056 152.469 98.615 152.466C101.021 152.406 103.632 152.402 106.413 152.483C106.523 152.487 106.633 152.468 106.735 152.429C106.838 152.39 106.931 152.331 107.011 152.255C107.09 152.18 107.153 152.089 107.196 151.989C107.24 151.888 107.262 151.78 107.263 151.671" fill="white"/>
<path fill-rule="evenodd" clip-rule="evenodd" d="M106.138 150.735L106.14 147.651C106.141 147.484 106.077 147.322 105.96 147.201C105.844 147.081 105.684 147.01 105.516 147.004C103.544 146.939 101.57 146.936 99.5977 146.993C99.4279 146.999 99.2667 147.069 99.1481 147.19C99.0295 147.311 98.9629 147.473 98.9622 147.642V150.722C98.9616 150.808 98.9784 150.893 99.0115 150.973C99.0445 151.052 99.0933 151.124 99.1548 151.184C99.2163 151.244 99.2894 151.291 99.3696 151.323C99.4498 151.355 99.5356 151.37 99.622 151.368C101.57 151.326 103.519 151.329 105.467 151.379C105.832 151.389 106.138 151.098 106.138 150.735Z" fill="#192064"/>
<path d="M101.88 175.534L102.785 220.295C102.785 220.295 103.464 221.87 102.558 222.995C101.654 224.12 105.048 223.669 103.464 225.244C101.881 226.818 104.369 226.369 103.464 228.618C102.863 230.111 102.462 249.774 102.359 263.858M101.15 276.253H113.597H101.15ZM102.334 271.355C102.34 274.751 102.376 277.16 102.446 277.878L102.334 271.355ZM102.349 265.357C102.34 266.806 102.335 268.256 102.334 269.705L102.349 265.357Z" stroke="#648BD8" stroke-width="1.051" stroke-linecap="round" stroke-linejoin="round"/>
<path fill-rule="evenodd" clip-rule="evenodd" d="M47.2909 83.7505C47.2909 83.7505 46.7703 89.8117 54.5778 89.3174C65.8769 88.6035 63.8774 79.9473 86.3969 67.6044C85.604 64.8891 83.9283 62.8477 83.9283 62.8477C83.9283 62.8477 72.7623 65.966 61.1444 70.9152C54.3185 73.823 47.6309 77.2842 47.2909 83.7505ZM105.384 91.401L106.334 86.0146L97.3712 74.5539L92.2896 79.9403L90.5342 87.7953C90.5206 87.8536 90.5236 87.9145 90.5428 87.9711C90.562 88.0278 90.5968 88.078 90.6432 88.1162C91.6167 88.9183 97.2007 93.1426 105.117 91.6697C105.184 91.6569 105.245 91.6244 105.292 91.5764C105.34 91.5284 105.372 91.4673 105.383 91.401" fill="#FFC6A0"/>
<path fill-rule="evenodd" clip-rule="evenodd" d="M94.7732 79.6997C94.7732 79.6997 90.2001 76.839 92.3197 72.8263C93.9571 69.728 96.8726 73.9624 96.8726 73.9624C96.8726 73.9624 97.3972 70.3106 100.021 70.3106C100.546 69.2678 101.596 66.1375 101.596 66.1375C101.596 66.1375 113.142 68.7454 115.242 69.2668C115.242 74.4838 112.917 88.7429 107.332 89.181C98.3617 89.8859 94.7732 79.6997 94.7732 79.6997Z" fill="#FFC6A0"/>
<path fill-rule="evenodd" clip-rule="evenodd" d="M114.882 73.7427C117.506 71.6562 118.382 63.9947 118.382 63.9947C118.382 63.9947 115.881 63.5034 111.684 61.9392C106.959 59.8526 98.7724 57.1795 94.0489 62.9178C84.2954 66.1494 91.9808 82.7939 91.9808 82.7939L94.7178 79.7648C94.7178 79.7648 90.748 76.469 92.6194 73.5051C94.8086 70.0338 96.5741 74.581 96.5741 74.581C96.5741 74.581 97.2167 72.1876 100.187 71.23C100.545 70.5181 101.232 68.5488 101.631 67.3697C101.717 67.1154 101.895 66.902 102.131 66.7714C102.367 66.6408 102.643 66.6025 102.906 66.6638C105.327 67.2233 111.659 68.6882 114.362 69.3329C114.889 69.4583 115.241 69.9496 115.189 70.486L114.882 73.7427Z" fill="#520038"/>
<path fill-rule="evenodd" clip-rule="evenodd" d="M105.906 76.3677C105.802 76.9793 105.319 77.4085 104.827 77.3262C104.333 77.243 104.018 76.6805 104.122 76.0689C104.226 75.4572 104.71 75.0281 105.202 75.1103C105.694 75.1925 106.009 75.756 105.906 76.3677ZM113.124 78.002C113.02 78.6137 112.537 79.0428 112.045 78.9606C111.553 78.8774 111.238 78.3149 111.341 77.7033C111.445 77.0916 111.928 76.6625 112.42 76.7447C112.912 76.8269 113.227 77.3894 113.124 78.002Z" fill="#552950"/>
<path d="M111.105 75.1404L110.201 76.7547L109.9 81.1234H107.652" stroke="#DB836E" stroke-width="1.118" stroke-linecap="round" stroke-linejoin="round"/>
<path d="M111.827 74.7805C111.827 74.7805 113.633 74.0626 114.355 75.3189" stroke="#5C2552" stroke-width="1.118" stroke-linecap="round" stroke-linejoin="round"/>
<path d="M93.2036 74.5809C93.2036 74.5809 93.6848 73.4639 94.3265 73.863C94.9691 74.2621 95.6117 75.2998 94.8894 75.8583C94.1661 76.4158 95.0498 77.5328 95.0498 77.5328" stroke="#DB836E" stroke-width="1.118" stroke-linecap="round" stroke-linejoin="round"/>
<path d="M104.201 73.2253C104.201 73.2253 106.047 74.3413 108.375 74.1819" stroke="#5C2552" stroke-width="1.118" stroke-linecap="round" stroke-linejoin="round"/>
<path d="M95.531 81.5225C95.531 81.5225 97.8594 88.9423 106.047 89.1819M104.603 82.081C104.603 82.081 106.849 83.2772 109.017 83.2772L104.603 82.081ZM105.566 84.6338C105.566 84.6338 106.528 85.0328 107.09 84.9526L105.566 84.6338Z" stroke="#DB836E" stroke-width="1.118" stroke-linecap="round" stroke-linejoin="round"/>
<path d="M69.6106 82.9753C69.6106 82.9753 68.8782 92.2822 61.334 97.2194M82.1708 89.7234C82.1708 89.7234 82.6247 95.3855 77.1921 102.545L82.1708 89.7234Z" stroke="#E4EBF7" stroke-width="1.101" stroke-linecap="round" stroke-linejoin="round"/>
<path d="M130.55 123.294C130.55 123.294 125.231 130.717 121.045 134.091" stroke="#E4EBF7" stroke-width="1.051" stroke-linecap="round" stroke-linejoin="round"/>
<path d="M120.362 107.717C120.362 107.717 120.818 112.094 118.216 139.864" stroke="#E4EBF7" stroke-width="1.101" stroke-linecap="round" stroke-linejoin="round"/>
<path fill-rule="evenodd" clip-rule="evenodd" d="M151.356 151.737H101.078C100.807 151.737 100.548 151.63 100.357 151.441C100.166 151.251 100.059 150.993 100.059 150.724V118.952C100.059 118.393 100.515 117.939 101.078 117.939H151.356C151.918 117.939 152.374 118.393 152.374 118.952V150.724C152.374 150.993 152.267 151.251 152.076 151.441C151.885 151.63 151.626 151.737 151.356 151.737Z" fill="#F2D7AD"/>
<path fill-rule="evenodd" clip-rule="evenodd" d="M151.62 151.737H131.581V117.94H152.549V150.814C152.549 151.058 152.451 151.293 152.277 151.466C152.103 151.639 151.867 151.736 151.621 151.736" fill="#F4D19D"/>
<path fill-rule="evenodd" clip-rule="evenodd" d="M124.647 128.339H93.7392C93.6434 128.339 93.5494 128.313 93.4674 128.264C93.3854 128.214 93.3187 128.144 93.2744 128.059C93.2302 127.975 93.2101 127.88 93.2165 127.785C93.2228 127.69 93.2553 127.598 93.3105 127.52L99.7469 118.383C99.9416 118.105 100.261 117.94 100.604 117.94H131.972L124.647 128.339Z" fill="#F2D7AD"/>
<path fill-rule="evenodd" clip-rule="evenodd" d="M124.783 128.891H100.128V128.371H124.511L131.758 118.083L132.185 118.382L124.783 128.891Z" fill="#CC9B6E"/>
<path fill-rule="evenodd" clip-rule="evenodd" d="M159.699 128.339H140.865C140.54 128.339 140.219 128.263 139.929 128.119C139.638 127.974 139.386 127.765 139.191 127.506L131.972 117.94H152.113C152.608 117.94 153.072 118.17 153.368 118.563L160.118 127.507C160.176 127.585 160.211 127.677 160.22 127.773C160.229 127.869 160.21 127.966 160.167 128.052C160.123 128.138 160.056 128.211 159.974 128.262C159.891 128.313 159.796 128.34 159.699 128.34" fill="#F4D19D"/>
<path fill-rule="evenodd" clip-rule="evenodd" d="M159.244 128.923H139.688L131.762 118.42L132.18 118.109L139.949 128.403H159.244V128.923ZM131.709 151.189L131.677 142.99L132.201 142.988L132.233 151.187L131.709 151.189Z" fill="#CC9B6E"/>
<path fill-rule="evenodd" clip-rule="evenodd" d="M131.666 140.257L131.585 118.786L132.109 118.784L132.189 140.255L131.666 140.257ZM112.866 141.41L112.364 141.266L113.856 136.085L114.358 136.229L112.866 141.41ZM109.397 141.538L106.694 138.595L109.382 135.152L109.796 135.471L107.378 138.568L109.783 141.187L109.397 141.538ZM117.639 141.538L117.252 141.187L119.657 138.568L117.238 135.471L117.652 135.152L120.341 138.595L117.639 141.538Z" fill="#CC9B6E"/>
<path fill-rule="evenodd" clip-rule="evenodd" d="M155.682 132.345L152.54 130.38L152.578 133.904L151.526 133.996C149.829 134.111 147.86 134.226 146.695 134.226C144.776 134.226 143.978 136.49 148.945 136.881L146.276 136.284C146.276 136.284 144.089 137.604 146.785 138.59C146.785 138.59 145.191 139.81 147.351 141.177C146.761 144.69 152.644 145.246 154.536 144.777C156.428 144.305 158.806 142.411 159.062 139.603C159.345 136.51 158.164 134.156 155.683 132.345" fill="#FFC6A0"/>
<path d="M155.046 134.035C155.046 134.035 148.466 134.506 146.612 134.408C144.76 134.31 144.691 136.604 148.992 136.678C152.764 136.828 154.491 136.634 154.491 136.634" stroke="#DB836E" stroke-width="1.051" stroke-linecap="round" stroke-linejoin="round"/>
<path d="M146.445 136.341C144.578 137.691 147.01 138.702 147.01 138.702C147.01 138.702 150.519 139.603 153.8 139.321" stroke="#DB836E" stroke-width="1.051" stroke-linecap="round" stroke-linejoin="round"/>
<path d="M53.3057 89.6251C56.8699 89.2872 61.8032 88.3738 67.0079 81.8503M153.234 142.19C153.234 142.19 146.899 142.301 146.445 140.052C146.22 138.702 146.899 138.646 146.899 138.646L153.234 142.19ZM147.407 141.345C147.407 141.345 146.294 144.514 152.895 144.888L147.407 141.345ZM152.54 130.38V133.866V130.38Z" stroke="#DB836E" stroke-width="1.051" stroke-linecap="round" stroke-linejoin="round"/>
<path fill-rule="evenodd" clip-rule="evenodd" d="M170.059 249.083C168.28 249.083 166.574 248.381 165.317 247.131C164.059 245.881 163.353 244.186 163.353 242.418V175.774C163.353 174.899 163.526 174.032 163.863 173.224C164.2 172.415 164.694 171.68 165.317 171.062C165.94 170.443 166.679 169.952 167.492 169.617C168.306 169.282 169.178 169.109 170.059 169.109C170.939 169.109 171.811 169.282 172.625 169.617C173.438 169.952 174.178 170.443 174.8 171.062C175.423 171.68 175.917 172.415 176.254 173.224C176.591 174.032 176.764 174.899 176.764 175.774V242.418C176.764 244.186 176.058 245.881 174.8 247.131C173.543 248.381 171.837 249.083 170.059 249.083Z" fill="#5BA02E"/>
<path fill-rule="evenodd" clip-rule="evenodd" d="M178.105 248.416C176.327 248.416 174.622 247.714 173.364 246.464C172.107 245.214 171.4 243.519 171.4 241.752V208.431C171.39 207.549 171.555 206.673 171.887 205.855C172.219 205.037 172.711 204.293 173.335 203.665C173.959 203.038 174.702 202.539 175.521 202.199C176.339 201.859 177.218 201.684 178.106 201.684C178.993 201.684 179.872 201.859 180.691 202.199C181.51 202.539 182.253 203.038 182.876 203.665C183.5 204.293 183.992 205.037 184.324 205.855C184.657 206.673 184.822 207.549 184.811 208.431V241.752C184.811 243.519 184.105 245.215 182.847 246.464C181.589 247.714 179.884 248.416 178.105 248.416Z" fill="#92C110"/>
<path fill-rule="evenodd" clip-rule="evenodd" d="M188.093 294.5H160.326C159.474 294.5 158.656 294.163 158.053 293.564C157.45 292.964 157.111 292.152 157.111 291.304V245.047C157.111 244.199 157.45 243.386 158.053 242.787C158.656 242.188 159.474 241.851 160.326 241.851H188.094C188.947 241.851 189.764 242.188 190.367 242.787C190.97 243.386 191.309 244.199 191.309 245.047V291.304C191.309 292.152 190.97 292.964 190.367 293.564C189.764 294.163 188.947 294.5 188.094 294.5" fill="#F2D7AD"/>
<path d="M89.7664 89.8197C89.7664 89.8197 97.6112 95.2181 106.513 92.6693" stroke="#E4EBF7" stroke-width="1.101" stroke-linecap="round" stroke-linejoin="round"/>
</svg>
