<svg width="106" height="50" viewBox="0 0 106 50" fill="none" xmlns="http://www.w3.org/2000/svg">
<rect width="106" height="50" fill="white"/>
<path d="M29 28.4968C29 30.1568 27.66 31.4968 26 31.4968C24.34 31.4968 23 30.1568 23 28.4968C23 26.8368 21.66 25.4968 20 25.4968C18.34 25.4968 17 24.1568 17 22.4968C17 20.8368 18.34 19.4968 20 19.4968C21.66 19.4968 23 20.8368 23 22.4968C23 24.1568 24.34 25.4968 26 25.4968C27.66 25.4968 29 26.8368 29 28.4968Z" fill="#10239E"/>
<ellipse cx="26.1919" cy="22.3614" rx="2.64653" ry="2.64653" fill="#10239E"/>
<circle cx="19.8648" cy="28.6888" r="2.64653" fill="#40A9FF"/>
<path d="M67.9292 23.8622C67.9292 23.8144 67.968 23.7756 68.0158 23.7756H69.8049C69.8527 23.7756 69.8915 23.8144 69.8915 23.8622V25.0471C69.8915 25.0568 69.8993 25.0646 69.909 25.0646C69.916 25.0646 69.9224 25.0605 69.9252 25.0541C70.0124 24.8562 70.1416 24.6585 70.313 24.4738C70.4729 24.2858 70.6619 24.1382 70.8799 24.0039C71.0834 23.8696 71.316 23.7756 71.5631 23.6951C71.7956 23.6279 72.0573 23.6011 72.3189 23.5876C72.4326 23.5876 72.5572 23.6079 72.7023 23.6396C72.7417 23.6483 72.7695 23.6833 72.7695 23.7237V25.3284C72.7695 25.3807 72.7235 25.4211 72.6715 25.4148C72.5949 25.4055 72.5113 25.3962 72.4207 25.3869C72.2753 25.3734 72.1445 25.36 72.0282 25.36C71.6503 25.36 71.3305 25.4271 71.0689 25.5346C70.8072 25.6554 70.5892 25.8165 70.4293 26.0179C70.2694 26.2193 70.1531 26.4476 70.095 26.7161C70.0223 26.9847 69.9932 27.2801 69.9932 27.5889V30.6621C69.9932 30.7099 69.9545 30.7487 69.9066 30.7487H68.0158C67.968 30.7487 67.9292 30.7099 67.9292 30.6621V23.8622Z" fill="#10239E"/>
<path d="M65.1498 26.5013C65.048 26.0179 64.8736 25.6554 64.6265 25.4003C64.3794 25.1586 64.0015 25.0378 63.5073 25.0243C63.1729 25.0243 62.8968 25.078 62.6787 25.1855C62.4607 25.2929 62.2863 25.4137 62.1555 25.5614C62.0246 25.7225 61.9374 25.8837 61.8793 26.0448C61.8211 26.2193 61.7921 26.367 61.7921 26.5013H65.1498ZM61.7921 27.7097C61.8211 28.3274 61.981 28.7839 62.3008 29.0524C62.6061 29.3344 63.0567 29.4687 63.6381 29.4687C64.0451 29.4687 64.4085 29.3747 64.7137 29.1867C64.9783 29.0156 65.1586 28.8223 65.2437 28.627C65.2585 28.5929 65.2911 28.5691 65.3282 28.5691H67.022C67.0518 28.5691 67.0727 28.5986 67.0625 28.6266C66.7713 29.4294 66.3279 30.0138 65.7457 30.3549C65.1352 30.7174 64.4085 30.8919 63.5654 30.8919C62.9694 30.8919 62.4316 30.8114 61.9665 30.6368C61.4868 30.4623 61.0798 30.2072 60.76 29.8849C60.4257 29.5627 60.1641 29.1867 59.9897 28.7302C59.8152 28.2871 59.728 27.7903 59.728 27.2532C59.728 26.743 59.8152 26.2596 60.0042 25.8031C60.1786 25.36 60.4403 24.9706 60.7891 24.6484C61.1234 24.3261 61.5304 24.0576 61.9956 23.8696C62.4607 23.6816 62.984 23.5876 63.5654 23.5876C64.205 23.5876 64.7573 23.7085 65.237 23.9367C65.7021 24.165 66.0946 24.4738 66.3998 24.8498C66.7051 25.2392 66.9231 25.6823 67.0685 26.1656C67.1926 26.6371 67.2382 27.1206 67.2177 27.6278C67.2158 27.6737 67.1778 27.7097 67.1318 27.7097H61.7921Z" fill="#10239E"/>
<path d="M57.2134 30.6919C57.2009 30.726 57.1684 30.7487 57.1321 30.7487H54.9564C54.9201 30.7487 54.8876 30.7261 54.8751 30.692L52.3578 23.8339C52.3474 23.8056 52.3683 23.7756 52.3984 23.7756H54.4399C54.4771 23.7756 54.5102 23.7995 54.522 23.8348L56.082 28.5016C56.0847 28.5098 56.0924 28.5154 56.1011 28.5154C56.1098 28.5154 56.1175 28.5098 56.1203 28.5016L57.6803 23.8348C57.6921 23.7995 57.7251 23.7756 57.7624 23.7756H59.6875C59.7176 23.7756 59.7386 23.8056 59.7282 23.8338L57.2134 30.6919Z" fill="#10239E"/>
<path d="M50.2689 26.5013C50.1672 26.0179 49.9927 25.6554 49.7456 25.4003C49.4985 25.1586 49.1206 25.0378 48.6264 25.0243C48.2921 25.0243 48.0159 25.078 47.7979 25.1855C47.5798 25.2929 47.4054 25.4137 47.2746 25.5614C47.1438 25.7225 47.0566 25.8837 46.9984 26.0448C46.9403 26.2193 46.9112 26.367 46.9112 26.5013H50.2689ZM46.9112 27.7097C46.9403 28.3274 47.1002 28.7839 47.42 29.0524C47.7252 29.3344 48.1758 29.4687 48.7572 29.4687C49.1642 29.4687 49.5276 29.3747 49.8329 29.1867C50.0974 29.0156 50.2777 28.8223 50.3628 28.627C50.3776 28.5929 50.4102 28.5691 50.4473 28.5691H52.1412C52.171 28.5691 52.1918 28.5986 52.1817 28.6266C51.8905 29.4294 51.447 30.0138 50.8649 30.3549C50.2544 30.7174 49.5276 30.8919 48.6845 30.8919C48.0886 30.8919 47.5508 30.8114 47.0856 30.6368C46.606 30.4623 46.199 30.2072 45.8792 29.8849C45.5449 29.5627 45.2832 29.1867 45.1088 28.7302C44.9344 28.2871 44.8472 27.7903 44.8472 27.2532C44.8472 26.743 44.9344 26.2596 45.1233 25.8031C45.2978 25.36 45.5594 24.9706 45.9083 24.6484C46.2426 24.3261 46.6496 24.0576 47.1147 23.8696C47.5798 23.6816 48.1031 23.5876 48.6845 23.5876C49.3241 23.5876 49.8765 23.7085 50.3561 23.9367C50.8213 24.165 51.2137 24.4738 51.519 24.8498C51.8242 25.2392 52.0422 25.6823 52.1876 26.1656C52.3118 26.6371 52.3574 27.1206 52.3368 27.6278C52.335 27.6737 52.2969 27.7097 52.2509 27.7097H46.9112Z" fill="#10239E"/>
<path d="M42.0752 20.8993C42.0752 20.8515 42.114 20.8127 42.1618 20.8127H44.0236C44.0714 20.8127 44.1102 20.8515 44.1102 20.8993V30.6621C44.1102 30.7099 44.0714 30.7487 44.0236 30.7487H42.1618C42.114 30.7487 42.0752 30.7099 42.0752 30.6621V20.8993Z" fill="#10239E"/>
<path d="M39.0701 24.2311C39.0282 24.2311 38.9926 24.2012 38.9835 24.1604C38.9363 23.9495 38.8536 23.759 38.7355 23.5794C38.5898 23.3799 38.4295 23.207 38.2255 23.0473C38.0215 22.901 37.7884 22.7813 37.5261 22.7015C37.2638 22.6217 37.0015 22.5818 36.7246 22.5685C36.2 22.5685 35.7629 22.6616 35.4131 22.8478C35.0488 23.034 34.7574 23.2735 34.5388 23.5794C34.3057 23.8853 34.1454 24.2311 34.0434 24.6169C33.9414 25.0159 33.8977 25.4149 33.8977 25.8273C33.8977 26.2263 33.9414 26.6254 34.0434 26.9978C34.1454 27.3702 34.3057 27.7161 34.5388 28.0087C34.7574 28.3146 35.0488 28.554 35.4131 28.7402C35.7629 28.9265 36.2 29.0063 36.7246 29.0063C37.4241 29.0063 37.9632 28.82 38.3567 28.421C38.7346 28.0505 38.9781 27.5571 39.0742 26.9529C39.081 26.9101 39.1175 26.8781 39.1608 26.8781H41.2048C41.2559 26.8781 41.296 26.9222 41.2901 26.973C41.2247 27.5331 41.0692 28.0341 40.8485 28.4875C40.6008 28.9664 40.2802 29.3787 39.8867 29.7112C39.4787 30.0571 39.0124 30.3098 38.4878 30.4827C37.9487 30.6689 37.3658 30.7487 36.7246 30.7487C35.9232 30.7487 35.2091 30.629 34.568 30.3763C33.9268 30.1236 33.4022 29.7777 32.9651 29.3255C32.5279 28.8866 32.1927 28.3678 31.9596 27.7693C31.7264 27.1707 31.6099 26.5189 31.6099 25.8273C31.6099 25.1223 31.7264 24.4706 31.9596 23.8587C32.1927 23.2469 32.5279 22.7148 32.9651 22.2626C33.4022 21.8236 33.9268 21.4645 34.568 21.1985C35.2091 20.9458 35.9232 20.826 36.7246 20.8127C37.2929 20.8127 37.8321 20.8926 38.3421 21.0389C38.8521 21.1985 39.3039 21.4113 39.7119 21.7039C40.1199 21.9965 40.455 22.3424 40.7173 22.768C40.9638 23.168 41.1202 23.6268 41.1987 24.1332C41.2067 24.185 41.1662 24.2311 41.1138 24.2311H39.0701Z" fill="#10239E"/>
<path d="M85.7312 21.7102H87.4309C87.4788 21.7102 87.5175 21.749 87.5175 21.7968V23.5497C87.5175 23.5976 87.4788 23.6363 87.4309 23.6363H85.7312V27.3169C85.7312 28.5696 85.8087 28.5658 85.9637 28.7126C86.1188 28.8593 86.4289 28.9327 86.894 28.9327C87.0491 28.9511 87.1847 28.9327 87.3398 28.9144C87.4439 28.9144 87.5786 28.8531 87.6794 28.7804C87.7108 28.7577 87.7598 28.7792 87.7598 28.8179V30.6733C87.7598 30.7079 87.7391 30.7393 87.7072 30.7529C87.4782 30.8501 87.2234 30.9506 86.9715 30.9506C86.6808 30.9689 86.4095 30.9689 86.1382 30.9689C86.12 30.9689 85.8131 30.9689 85.6839 30.9506C85.3692 30.9059 84.9011 30.7396 84.6104 30.5745C84.4525 30.4848 84.0476 30.0883 83.9844 29.8993C83.9815 29.8908 83.9782 29.8829 83.9736 29.8753C83.8326 29.6428 83.7543 29.2002 83.7543 28.7309V23.6363H82.1291C82.0813 23.6363 82.0425 23.5976 82.0425 23.5497V21.7968C82.0425 21.749 82.0813 21.7102 82.1291 21.7102H83.7543V18.5866C83.7543 18.5388 83.7931 18.5 83.8409 18.5H85.6446C85.6924 18.5 85.7312 18.5388 85.7312 18.5866V21.7102Z" fill="#10239E"/>
<path fill-rule="evenodd" clip-rule="evenodd" d="M73.5151 23.5497C73.5151 23.5976 73.5539 23.6363 73.6017 23.6363H74.8718V30.6622C74.8718 30.71 74.9106 30.7488 74.9584 30.7488H76.9559C77.0037 30.7488 77.0424 30.71 77.0424 30.6622V23.6363H78.5644C78.6123 23.6363 78.651 23.5976 78.651 23.5497L78.651 21.7968C78.651 21.749 78.6123 21.7102 78.5644 21.7102H77.0424L77.0424 21.5451C77.0424 21.1599 77.12 20.7941 77.275 20.629C77.4301 20.4639 77.7014 20.3722 78.089 20.3722C78.4209 20.3722 78.7352 20.3888 79.0487 20.422C79.0744 20.4247 79.0968 20.4046 79.0968 20.3788V18.5L78.3603 18.5L77.6336 18.5C76.713 18.5 75.9862 18.9444 75.5501 19.3713C74.9881 19.9217 74.8718 20.5545 74.8718 21.38L74.8718 21.7102H73.6017C73.5539 21.7102 73.5151 21.749 73.5151 21.7968L73.5151 23.5497ZM81.4612 24.5484C81.4612 24.5006 81.4225 24.4618 81.3746 24.4618H79.4353C79.3875 24.4618 79.3487 24.5006 79.3487 24.5484V30.6622C79.3487 30.71 79.3875 30.7488 79.4353 30.7488H81.3746C81.4225 30.7488 81.4612 30.71 81.4612 30.6622V24.5484Z" fill="#10239E"/>
<path d="M81.4612 22.6916C81.4612 23.2504 81.0025 23.7034 80.4437 23.7034C79.885 23.7034 79.4263 23.2504 79.4263 22.6916C79.4263 22.1328 79.885 21.6799 80.4437 21.6799C81.0025 21.6799 81.4612 22.1328 81.4612 22.6916Z" fill="#40A9FF"/>
</svg>
