<svg width="208" height="64" viewBox="0 0 208 64" fill="none" xmlns="http://www.w3.org/2000/svg">
<rect width="208" height="64" fill="white"/>
<path d="M110.517 29.2948C110.517 29.008 110.749 28.7756 111.036 28.7756H113.67C113.957 28.7756 114.189 29.008 114.189 29.2948V31.1485C114.189 31.1667 114.204 31.1814 114.222 31.1814C114.235 31.1814 114.247 31.1736 114.252 31.1617C114.416 30.7923 114.658 30.4234 114.978 30.0787C115.278 29.7279 115.631 29.4522 116.039 29.2016C116.42 28.951 116.856 28.7756 117.318 28.6253C117.753 28.5 118.243 28.4498 118.733 28.4248C118.869 28.4248 119.014 28.4403 119.172 28.467C119.41 28.5074 119.576 28.7214 119.576 28.9633V31.2661C119.576 31.5797 119.3 31.8221 118.988 31.7895C118.967 31.7873 118.945 31.7851 118.923 31.7828C118.651 31.7578 118.406 31.7327 118.189 31.7327C117.481 31.7327 116.883 31.858 116.393 32.0585C115.903 32.284 115.495 32.5848 115.196 32.9607C114.897 33.3366 114.679 33.7626 114.57 34.2638C114.434 34.765 114.38 35.3163 114.38 35.8927V41.271C114.38 41.5577 114.147 41.7902 113.861 41.7902H111.036C110.749 41.7902 110.517 41.5577 110.517 41.271V29.2948Z" fill="#10239E"/>
<path d="M105.314 33.8628C105.124 32.9607 104.797 32.284 104.335 31.8079C103.872 31.3568 103.165 31.1313 102.24 31.1062C101.614 31.1062 101.097 31.2064 100.689 31.4069C100.281 31.6074 99.9543 31.8329 99.7095 32.1086C99.4646 32.4093 99.3014 32.7101 99.1925 33.0108C99.0837 33.3366 99.0293 33.6122 99.0293 33.8628H105.314ZM99.0293 36.1182C99.0837 37.271 99.383 38.123 99.9815 38.6242C100.553 39.1505 101.396 39.4011 102.484 39.4011C103.246 39.4011 103.926 39.2257 104.498 38.8748C104.891 38.6215 105.184 38.3421 105.368 38.0554C105.488 37.8682 105.681 37.7221 105.904 37.7221H108.566C108.745 37.7221 108.87 37.8989 108.805 38.0652C108.26 39.4426 107.461 40.4525 106.429 41.0551C105.287 41.7317 103.926 42.0575 102.348 42.0575C101.233 42.0575 100.226 41.9071 99.3558 41.5813C98.458 41.2556 97.6962 40.7794 97.0977 40.178C96.4719 39.5765 95.9822 38.8748 95.6557 38.0228C95.3292 37.1958 95.166 36.2686 95.166 35.2662C95.166 34.3139 95.3293 33.4117 95.6829 32.5597C96.0094 31.7327 96.4991 31.006 97.1521 30.4045C97.7778 29.8031 98.5396 29.3019 99.4102 28.951C100.281 28.6002 101.26 28.4248 102.348 28.4248C103.546 28.4248 104.579 28.6503 105.477 29.0763C106.348 29.5024 107.082 30.0787 107.654 30.7804C108.225 31.5072 108.633 32.3342 108.905 33.2363C109.11 34.0108 109.2 34.8027 109.193 35.6268C109.19 35.9025 108.961 36.1182 108.685 36.1182H99.0293Z" fill="#10239E"/>
<path d="M90.5454 41.4502C90.4703 41.6545 90.2757 41.7902 90.0581 41.7902H86.4839C86.2663 41.7902 86.0718 41.6546 85.9967 41.4504L81.4596 29.1249C81.3972 28.9555 81.5226 28.7757 81.7032 28.7757H85.0113C85.2344 28.7757 85.4326 28.9182 85.5035 29.1298L88.3416 37.5961C88.3468 37.6115 88.3612 37.6219 88.3775 37.6219C88.3937 37.6219 88.4082 37.6115 88.4133 37.5961L91.2514 29.1298C91.3224 28.9182 91.5205 28.7757 91.7437 28.7757H94.8342C95.0148 28.7757 95.1402 28.9554 95.0778 29.1248L90.5454 41.4502Z" fill="#10239E"/>
<path d="M77.4614 33.8628C77.271 32.9607 76.9445 32.284 76.482 31.8079C76.0195 31.3568 75.3121 31.1313 74.3871 31.1062C73.7614 31.1062 73.2444 31.2064 72.8363 31.4069C72.4283 31.6074 72.1018 31.8329 71.8569 32.1086C71.6121 32.4093 71.4488 32.7101 71.34 33.0108C71.2312 33.3366 71.1768 33.6122 71.1768 33.8628H77.4614ZM71.1768 36.1182C71.2312 37.271 71.5304 38.123 72.129 38.6242C72.7003 39.1505 73.5437 39.4011 74.632 39.4011C75.3937 39.4011 76.0739 39.2257 76.6452 38.8748C77.0381 38.6215 77.3317 38.3421 77.5158 38.0554C77.6359 37.8682 77.8287 37.7221 78.0511 37.7221H80.7139C80.8927 37.7221 81.0178 37.8989 80.9521 38.0652C80.4074 39.4426 79.6085 40.4525 78.5769 41.0551C77.4342 41.7317 76.0739 42.0575 74.4959 42.0575C73.3805 42.0575 72.3738 41.9071 71.5032 41.5813C70.6054 41.2556 69.8437 40.7794 69.2451 40.178C68.6194 39.5765 68.1297 38.8748 67.8032 38.0228C67.4767 37.1958 67.3135 36.2686 67.3135 35.2662C67.3135 34.3139 67.4767 33.4117 67.8304 32.5597C68.1569 31.7327 68.6466 31.006 69.2995 30.4045C69.9253 29.8031 70.6871 29.3019 71.5577 28.951C72.4283 28.6002 73.4077 28.4248 74.4959 28.4248C75.693 28.4248 76.7268 28.6503 77.6246 29.0763C78.4952 29.5024 79.2298 30.0787 79.8012 30.7804C80.3725 31.5072 80.7806 32.3342 81.0526 33.2363C81.2572 34.0108 81.3478 34.8027 81.3404 35.6268C81.3379 35.9025 81.1088 36.1182 80.833 36.1182H71.1768Z" fill="#10239E"/>
<path d="M62.126 23.7649C62.126 23.4782 62.3584 23.2457 62.6451 23.2457H65.4157C65.7024 23.2457 65.9349 23.4782 65.9349 23.7649V41.2711C65.9349 41.5578 65.7024 41.7902 65.4157 41.7902H62.6451C62.3584 41.7902 62.126 41.5578 62.126 41.2711V23.7649Z" fill="#10239E"/>
<path d="M56.798 29.6258C56.5473 29.6258 56.3371 29.4449 56.26 29.2064C56.1688 28.9243 56.0403 28.6612 55.8743 28.4094C55.6016 28.037 55.3015 27.7143 54.9197 27.4164C54.5379 27.1433 54.1015 26.9199 53.6105 26.7709C53.1196 26.622 52.6287 26.5475 52.1104 26.5227C51.1286 26.5227 50.3103 26.6964 49.6557 27.044C48.9739 27.3915 48.4284 27.8384 48.0193 28.4094C47.5829 28.9804 47.2829 29.6258 47.0919 30.3458C46.901 31.0905 46.8192 31.8353 46.8192 32.6049C46.8192 33.3496 46.901 34.0944 47.0919 34.7895C47.2829 35.4846 47.5829 36.13 48.0193 36.6762C48.4284 37.2472 48.9739 37.694 49.6557 38.0416C50.3103 38.3891 51.1286 38.5381 52.1104 38.5381C53.4196 38.5381 54.4288 38.1905 55.1652 37.4458C55.8074 36.8179 56.2422 36.0012 56.4515 35.0121C56.5052 34.7582 56.7222 34.5661 56.9816 34.5661H60.1023C60.409 34.5661 60.6502 34.8309 60.6013 35.1336C60.4579 36.0231 60.1902 36.8305 59.8291 37.5699C59.3654 38.4636 58.7654 39.2332 58.029 39.8538C57.2653 40.4993 56.3925 40.971 55.4106 41.2937C54.4015 41.6413 53.3105 41.7902 52.1104 41.7902C50.6103 41.7902 49.2739 41.5668 48.0738 41.0951C46.8737 40.6234 45.8919 39.978 45.0736 39.1339C44.2554 38.3147 43.6281 37.3465 43.1917 36.2293C42.7553 35.1122 42.5371 33.8958 42.5371 32.6049C42.5371 31.2891 42.7553 30.0727 43.1917 28.9307C43.6281 27.7888 44.2554 26.7957 45.0736 25.9517C45.8919 25.1324 46.8737 24.4622 48.0738 23.9657C49.2739 23.494 50.6103 23.2706 52.1104 23.2457C53.1741 23.2457 54.1833 23.3947 55.1379 23.6678C56.0925 23.9657 56.938 24.3629 57.7017 24.909C58.4654 25.4552 59.0927 26.1006 59.5836 26.895C59.9787 27.5343 60.2501 28.2538 60.4121 29.0408C60.4754 29.3485 60.2317 29.6258 59.9176 29.6258H56.798Z" fill="#10239E"/>
<path d="M143.837 24.921H146.661C146.948 24.921 147.18 25.1535 147.18 25.4402V27.9968C147.18 28.2835 146.948 28.516 146.661 28.516H143.837V35.3853C143.837 37.7233 143.982 37.7164 144.272 37.9903C144.562 38.2642 145.143 38.4011 146.013 38.4011C146.303 38.4353 146.557 38.4011 146.848 38.3669C146.926 38.3669 147.013 38.3486 147.101 38.3179C147.32 38.2421 147.634 38.3884 147.634 38.6201V41.4133C147.634 41.6214 147.51 41.811 147.317 41.8886C146.948 42.037 146.551 42.1672 146.158 42.1672C145.614 42.2015 145.106 42.2015 144.599 42.2015C144.565 42.2015 143.99 42.2015 143.748 42.1672C143.159 42.0838 142.283 41.7735 141.739 41.4654C141.457 41.3058 140.755 40.6255 140.588 40.2566C140.566 40.2081 140.545 40.1591 140.519 40.1124C140.273 39.6674 140.137 38.869 140.137 38.0245V28.516H137.452C137.165 28.516 136.933 28.2835 136.933 27.9968V25.4402C136.933 25.1535 137.165 24.921 137.452 24.921H140.137V19.4487C140.137 19.1619 140.369 18.9295 140.656 18.9295H143.318C143.604 18.9295 143.837 19.1619 143.837 19.4487V24.921Z" fill="#10239E"/>
<path fill-rule="evenodd" clip-rule="evenodd" d="M120.972 27.9968C120.972 28.2835 121.204 28.516 121.491 28.516H123.511V41.2715C123.511 41.5582 123.743 41.7906 124.03 41.7906H127.055C127.341 41.7906 127.574 41.5582 127.574 41.2715V28.516H130.065C130.352 28.516 130.585 28.2835 130.585 27.9968L130.585 25.4402C130.585 25.1535 130.352 24.921 130.065 24.921H127.574L127.574 24.6129C127.574 23.8939 127.719 23.2112 128.009 22.903C128.299 22.5949 128.807 22.4237 129.533 22.4237C130.084 22.4237 130.609 22.4481 131.13 22.4969C131.284 22.5113 131.419 22.3911 131.419 22.2364V18.9295L130.04 18.9295L128.68 18.9295C126.957 18.9295 125.597 19.7589 124.781 20.5558C123.729 21.5829 123.511 22.7641 123.511 24.3048L123.511 24.921H121.491C121.204 24.921 120.972 25.1535 120.972 25.4402L120.972 27.9968ZM135.844 30.5758C135.844 30.2891 135.612 30.0566 135.325 30.0566H132.41C132.123 30.0566 131.89 30.2891 131.89 30.5758V41.2715C131.89 41.5582 132.123 41.7906 132.41 41.7906H135.325C135.612 41.7906 135.844 41.5582 135.844 41.2715V30.5758Z" fill="#10239E"/>
<path d="M135.844 26.7528C135.844 27.7957 134.983 28.6411 133.94 28.6411C132.897 28.6411 132.036 27.7957 132.036 26.7528C132.036 25.7098 132.897 24.8644 133.94 24.8644C134.983 24.8644 135.844 25.7098 135.844 26.7528Z" fill="#40A9FF"/>
<path d="M37.8801 36.877C37.8801 39.7363 35.5654 42.0444 32.6979 42.0444C29.8305 42.0444 27.5158 39.7363 27.5158 36.877C27.5158 34.0176 25.201 31.7095 22.3336 31.7095C19.4661 31.7095 17.1514 29.4013 17.1514 26.542C17.1514 23.6826 19.4661 21.3745 22.3336 21.3745C25.201 21.3745 27.5158 23.6826 27.5158 26.542C27.5158 29.4013 29.8305 31.7095 32.6979 31.7095C35.5654 31.7095 37.8801 34.0176 37.8801 36.877Z" fill="#10239E"/>
<ellipse cx="33.0296" cy="26.3089" rx="4.5716" ry="4.55863" fill="#10239E"/>
<ellipse cx="22.0999" cy="37.2076" rx="4.5716" ry="4.55863" fill="#40A9FF"/>
</svg>
